<svg xmlns="http://www.w3.org/2000/svg" width="130px" height="30px" version="1.1" style="fill-rule:evenodd" viewBox="0 0 130000 30000">
 <defs>
  <style type="text/css">
    .fil0 {fill:#007CC3}
  </style>
 </defs>
 <g id="DekTecLogo">
  <path class="fil0" d="M6 22839l-6 -15717c92,0 222,-7 391,-21 176,-14 306,-21 398,-21 2595,0 4723,744 6377,2224 1655,1481 2481,3354 2482,5629 2,2237 -778,4082 -2331,5542 -1554,1458 -3582,2231 -6078,2317l0 0 -1233 47z"/>
  <path class="fil0" d="M129996 15154l4 8345 -2911 0c-1717,0 -3078,-374 -4087,-1129 -1008,-747 -1508,-1761 -1508,-3026 -2,-1258 498,-2279 1506,-3040 1008,-769 2370,-1150 4085,-1150l2911 0z"/>
  <path class="fil0" d="M53000 0l15000 0 0 7000 7000 0 0 23000 -9000 0 0 -5500c-1,-1944 -261,-3590 -1050,-4620 -796,-1037 -2082,-1758 -3858,-2159 697,-215 1300,-529 1806,-966 498,-436 872,-958 1132,-1573l2661 -6429 -7532 0 -1483 3562c-506,1258 -1003,2117 -1485,2574 -489,464 -1086,693 -1806,693l-1374 0 -11 -15582z"/>
  <path class="fil0" d="M59000 30000l-6000 0 0 -7999 2500 0c1164,0 2141,282 2700,825 552,551 802,1502 804,2675l-4 4499z"/>
  <path class="fil0" d="M90001 0l39990 0 3 8645 -2465 0c-4055,0 -7302,977 -9732,2924 -2438,1956 -3653,4530 -3652,7735 1,3214 1219,5800 3659,7756 2431,1962 5679,2940 9733,2940l-27131 0c-1489,0 -2925,-275 -4309,-820 -1377,-543 -2600,-1327 -3667,-2344 -1104,-1052 -1944,-2231 -2511,-3537 -568,-1314 -856,-2706 -856,-4182 -1,-1476 286,-2867 851,-4181 567,-1306 1406,-2486 2510,-3537 1064,-1004 2274,-1780 3643,-2317 1366,-537 2811,-805 4331,-805 2275,0 4316,565 6131,1688 1814,1123 3313,2761 4478,4915l-10868 6907 -2723 -3849 5879 -3821c-386,-240 -778,-416 -1195,-530 -416,-120 -839,-176 -1284,-176 -1384,0 -2563,494 -3537,1476 -976,989 -1459,2195 -1458,3630 0,1461 476,2691 1437,3680 961,995 2132,1489 3524,1489 1300,0 2501,-366 3620,-1094 1111,-734 2055,-1794 2842,-3185l5361 2422c-1179,2606 -2834,4620 -4957,6038 -2124,1420 -4543,2133 -7242,2133l-17406 0 0 -23000 7001 0 0 -7000z"/>
  <path class="fil0" d="M1243 30000l29994 0c2699,0 5118,-713 7240,-2133 2125,-1418 3778,-3432 4957,-6038l-5361 -2422c-785,1391 -1729,2451 -2841,3185 -1118,728 -2320,1094 -3621,1094 -1390,0 -2563,-494 -3523,-1489 -960,-989 -1437,-2219 -1437,-3680 0,-1435 483,-2641 1457,-3630 974,-982 2154,-1476 3537,-1476 447,0 870,56 1286,176 415,114 809,290 1195,530l-5881 3821 2723 3849 10868 -6907c-1164,-2154 -2662,-3792 -4478,-4915 -1814,-1123 -3855,-1688 -6131,-1688 -1519,0 -2963,268 -4331,805 -1367,537 -2577,1313 -3642,2317 -1103,1051 -1942,2231 -2509,3537 -567,1314 -853,2705 -853,4181 1,1477 288,2868 857,4182 566,1306 1406,2485 2511,3537 1066,1017 2291,1801 3667,2344 1384,545 2820,820 4310,820l14762 0 0 -30000 -44924 0 -1075 0 0 30c2143,64 3898,233 5264,506 1799,358 3391,937 4785,1745 2497,1452 4427,3283 5781,5492 1365,2203 2047,4606 2048,7209 0,2482 -618,4813 -1857,6987 -1239,2167 -2984,3991 -5227,5456 -1194,766 -2586,1367 -4172,1803 -1583,428 -3374,686 -5379,772l0 0z"/>
 </g>
</svg>
